<mxfile host="app.diagrams.net" modified="2021-03-05T01:40:22.475Z" agent="5.0 (Macintosh; Intel Mac OS X 10_15_7) AppleWebKit/537.36 (KHTML, like Gecko) Chrome/88.0.4324.192 Safari/537.36" etag="oe0pD40R4LsNVvnyOSyh" version="14.4.4" type="github">
  <diagram id="20opihmhMm-EBxE_RU-L" name="第 1 页">
    <mxGraphModel dx="1135" dy="719" grid="0" gridSize="10" guides="1" tooltips="1" connect="1" arrows="1" fold="1" page="1" pageScale="1" pageWidth="1200" pageHeight="1600" math="0" shadow="0">
      <root>
        <mxCell id="0" />
        <mxCell id="1" parent="0" />
        <mxCell id="hC-yQwHcNALGtRgl69IV-10" style="edgeStyle=orthogonalEdgeStyle;curved=1;rounded=0;sketch=1;orthogonalLoop=1;jettySize=auto;html=1;exitX=0.5;exitY=0;exitDx=0;exitDy=0;entryX=0.5;entryY=1;entryDx=0;entryDy=0;endArrow=none;endFill=0;" edge="1" parent="1" source="hC-yQwHcNALGtRgl69IV-8" target="hC-yQwHcNALGtRgl69IV-9">
          <mxGeometry relative="1" as="geometry" />
        </mxCell>
        <mxCell id="hC-yQwHcNALGtRgl69IV-20" style="edgeStyle=orthogonalEdgeStyle;curved=1;rounded=0;sketch=1;orthogonalLoop=1;jettySize=auto;html=1;exitX=0.5;exitY=1;exitDx=0;exitDy=0;entryX=0.5;entryY=0;entryDx=0;entryDy=0;endArrow=none;endFill=0;" edge="1" parent="1" source="hC-yQwHcNALGtRgl69IV-8" target="hC-yQwHcNALGtRgl69IV-19">
          <mxGeometry relative="1" as="geometry" />
        </mxCell>
        <mxCell id="hC-yQwHcNALGtRgl69IV-8" value="游戏" style="whiteSpace=wrap;html=1;align=center;sketch=1;fillColor=#ffe6cc;strokeColor=#d79b00;" vertex="1" parent="1">
          <mxGeometry x="302" y="273" width="100" height="40" as="geometry" />
        </mxCell>
        <mxCell id="hC-yQwHcNALGtRgl69IV-9" value="发行商" style="ellipse;whiteSpace=wrap;html=1;align=center;sketch=1;fillColor=#ffe6cc;strokeColor=#d79b00;" vertex="1" parent="1">
          <mxGeometry x="302" y="172" width="100" height="40" as="geometry" />
        </mxCell>
        <mxCell id="hC-yQwHcNALGtRgl69IV-14" style="edgeStyle=orthogonalEdgeStyle;curved=1;rounded=0;sketch=1;orthogonalLoop=1;jettySize=auto;html=1;exitX=0.5;exitY=1;exitDx=0;exitDy=0;endArrow=none;endFill=0;" edge="1" parent="1" source="hC-yQwHcNALGtRgl69IV-11" target="hC-yQwHcNALGtRgl69IV-8">
          <mxGeometry relative="1" as="geometry" />
        </mxCell>
        <mxCell id="hC-yQwHcNALGtRgl69IV-11" value="推荐" style="ellipse;whiteSpace=wrap;html=1;align=center;sketch=1;fillColor=#ffe6cc;strokeColor=#d79b00;" vertex="1" parent="1">
          <mxGeometry x="409" y="190" width="100" height="40" as="geometry" />
        </mxCell>
        <mxCell id="hC-yQwHcNALGtRgl69IV-13" style="edgeStyle=orthogonalEdgeStyle;curved=1;rounded=0;sketch=1;orthogonalLoop=1;jettySize=auto;html=1;exitX=0.5;exitY=1;exitDx=0;exitDy=0;entryX=0.5;entryY=0;entryDx=0;entryDy=0;endArrow=none;endFill=0;" edge="1" parent="1" source="hC-yQwHcNALGtRgl69IV-12" target="hC-yQwHcNALGtRgl69IV-8">
          <mxGeometry relative="1" as="geometry" />
        </mxCell>
        <mxCell id="hC-yQwHcNALGtRgl69IV-12" value="服务器" style="ellipse;whiteSpace=wrap;html=1;align=center;sketch=1;fillColor=#ffe6cc;strokeColor=#d79b00;" vertex="1" parent="1">
          <mxGeometry x="195" y="184" width="100" height="40" as="geometry" />
        </mxCell>
        <mxCell id="hC-yQwHcNALGtRgl69IV-16" style="edgeStyle=orthogonalEdgeStyle;curved=1;rounded=0;sketch=1;orthogonalLoop=1;jettySize=auto;html=1;exitX=0.5;exitY=1;exitDx=0;exitDy=0;endArrow=none;endFill=0;" edge="1" parent="1" source="hC-yQwHcNALGtRgl69IV-15">
          <mxGeometry relative="1" as="geometry">
            <mxPoint x="354" y="276" as="targetPoint" />
          </mxGeometry>
        </mxCell>
        <mxCell id="hC-yQwHcNALGtRgl69IV-15" value="广告" style="ellipse;whiteSpace=wrap;html=1;align=center;sketch=1;fillColor=#ffe6cc;strokeColor=#d79b00;" vertex="1" parent="1">
          <mxGeometry x="130" y="224" width="100" height="40" as="geometry" />
        </mxCell>
        <mxCell id="hC-yQwHcNALGtRgl69IV-21" style="edgeStyle=orthogonalEdgeStyle;curved=1;rounded=0;sketch=1;orthogonalLoop=1;jettySize=auto;html=1;exitX=0.5;exitY=0;exitDx=0;exitDy=0;entryX=0.5;entryY=1;entryDx=0;entryDy=0;endArrow=none;endFill=0;" edge="1" parent="1" source="hC-yQwHcNALGtRgl69IV-17" target="hC-yQwHcNALGtRgl69IV-19">
          <mxGeometry relative="1" as="geometry" />
        </mxCell>
        <mxCell id="hC-yQwHcNALGtRgl69IV-25" style="edgeStyle=orthogonalEdgeStyle;curved=1;rounded=0;sketch=1;orthogonalLoop=1;jettySize=auto;html=1;exitX=1;exitY=0.5;exitDx=0;exitDy=0;entryX=0;entryY=0.5;entryDx=0;entryDy=0;endArrow=none;endFill=0;" edge="1" parent="1" source="hC-yQwHcNALGtRgl69IV-17" target="hC-yQwHcNALGtRgl69IV-22">
          <mxGeometry relative="1" as="geometry" />
        </mxCell>
        <mxCell id="hC-yQwHcNALGtRgl69IV-29" style="edgeStyle=orthogonalEdgeStyle;curved=1;rounded=0;sketch=1;orthogonalLoop=1;jettySize=auto;html=1;exitX=1;exitY=0.5;exitDx=0;exitDy=0;entryX=0;entryY=0.5;entryDx=0;entryDy=0;endArrow=none;endFill=0;" edge="1" parent="1" source="hC-yQwHcNALGtRgl69IV-17" target="hC-yQwHcNALGtRgl69IV-28">
          <mxGeometry relative="1" as="geometry" />
        </mxCell>
        <mxCell id="hC-yQwHcNALGtRgl69IV-17" value="商品" style="whiteSpace=wrap;html=1;align=center;sketch=1;fillColor=#dae8fc;strokeColor=#6c8ebf;" vertex="1" parent="1">
          <mxGeometry x="300" y="431" width="100" height="40" as="geometry" />
        </mxCell>
        <mxCell id="hC-yQwHcNALGtRgl69IV-19" value="归属" style="shape=rhombus;perimeter=rhombusPerimeter;whiteSpace=wrap;html=1;align=center;sketch=1;fillColor=#ffe6cc;strokeColor=#d79b00;" vertex="1" parent="1">
          <mxGeometry x="292" y="342" width="120" height="60" as="geometry" />
        </mxCell>
        <mxCell id="hC-yQwHcNALGtRgl69IV-26" style="edgeStyle=orthogonalEdgeStyle;curved=1;rounded=0;sketch=1;orthogonalLoop=1;jettySize=auto;html=1;exitX=1;exitY=0.5;exitDx=0;exitDy=0;entryX=0;entryY=0.5;entryDx=0;entryDy=0;endArrow=none;endFill=0;" edge="1" parent="1" source="hC-yQwHcNALGtRgl69IV-22" target="hC-yQwHcNALGtRgl69IV-23">
          <mxGeometry relative="1" as="geometry" />
        </mxCell>
        <mxCell id="hC-yQwHcNALGtRgl69IV-27" style="edgeStyle=orthogonalEdgeStyle;curved=1;rounded=0;sketch=1;orthogonalLoop=1;jettySize=auto;html=1;exitX=1;exitY=0.5;exitDx=0;exitDy=0;entryX=0;entryY=0.5;entryDx=0;entryDy=0;endArrow=none;endFill=0;" edge="1" parent="1" source="hC-yQwHcNALGtRgl69IV-22" target="hC-yQwHcNALGtRgl69IV-24">
          <mxGeometry relative="1" as="geometry" />
        </mxCell>
        <mxCell id="hC-yQwHcNALGtRgl69IV-22" value="价格" style="ellipse;whiteSpace=wrap;html=1;align=center;sketch=1;fillColor=#dae8fc;strokeColor=#6c8ebf;" vertex="1" parent="1">
          <mxGeometry x="425" y="380" width="100" height="40" as="geometry" />
        </mxCell>
        <mxCell id="hC-yQwHcNALGtRgl69IV-23" value="议价" style="ellipse;whiteSpace=wrap;html=1;align=center;dashed=1;sketch=1;fillColor=#dae8fc;strokeColor=#6c8ebf;" vertex="1" parent="1">
          <mxGeometry x="557" y="337" width="100" height="40" as="geometry" />
        </mxCell>
        <mxCell id="hC-yQwHcNALGtRgl69IV-24" value="定价" style="ellipse;whiteSpace=wrap;html=1;align=center;dashed=1;sketch=1;fillColor=#dae8fc;strokeColor=#6c8ebf;" vertex="1" parent="1">
          <mxGeometry x="557" y="389" width="100" height="40" as="geometry" />
        </mxCell>
        <mxCell id="hC-yQwHcNALGtRgl69IV-35" style="edgeStyle=orthogonalEdgeStyle;curved=1;rounded=0;sketch=1;orthogonalLoop=1;jettySize=auto;html=1;exitX=1;exitY=0.5;exitDx=0;exitDy=0;entryX=0;entryY=0.5;entryDx=0;entryDy=0;endArrow=none;endFill=0;" edge="1" parent="1" source="hC-yQwHcNALGtRgl69IV-28" target="hC-yQwHcNALGtRgl69IV-31">
          <mxGeometry relative="1" as="geometry" />
        </mxCell>
        <mxCell id="hC-yQwHcNALGtRgl69IV-36" style="edgeStyle=orthogonalEdgeStyle;curved=1;rounded=0;sketch=1;orthogonalLoop=1;jettySize=auto;html=1;exitX=1;exitY=0.5;exitDx=0;exitDy=0;entryX=0;entryY=0.5;entryDx=0;entryDy=0;endArrow=none;endFill=0;" edge="1" parent="1" source="hC-yQwHcNALGtRgl69IV-28" target="hC-yQwHcNALGtRgl69IV-32">
          <mxGeometry relative="1" as="geometry" />
        </mxCell>
        <mxCell id="hC-yQwHcNALGtRgl69IV-37" style="edgeStyle=orthogonalEdgeStyle;curved=1;rounded=0;sketch=1;orthogonalLoop=1;jettySize=auto;html=1;exitX=1;exitY=0.5;exitDx=0;exitDy=0;entryX=0;entryY=0.5;entryDx=0;entryDy=0;endArrow=none;endFill=0;" edge="1" parent="1" source="hC-yQwHcNALGtRgl69IV-28" target="hC-yQwHcNALGtRgl69IV-33">
          <mxGeometry relative="1" as="geometry" />
        </mxCell>
        <mxCell id="hC-yQwHcNALGtRgl69IV-38" style="edgeStyle=orthogonalEdgeStyle;curved=1;rounded=0;sketch=1;orthogonalLoop=1;jettySize=auto;html=1;exitX=1;exitY=0.5;exitDx=0;exitDy=0;entryX=0;entryY=0.5;entryDx=0;entryDy=0;endArrow=none;endFill=0;" edge="1" parent="1" source="hC-yQwHcNALGtRgl69IV-28" target="hC-yQwHcNALGtRgl69IV-34">
          <mxGeometry relative="1" as="geometry" />
        </mxCell>
        <mxCell id="hC-yQwHcNALGtRgl69IV-28" value="类别" style="ellipse;whiteSpace=wrap;html=1;align=center;sketch=1;fillColor=#dae8fc;strokeColor=#6c8ebf;" vertex="1" parent="1">
          <mxGeometry x="557" y="449" width="100" height="40" as="geometry" />
        </mxCell>
        <mxCell id="hC-yQwHcNALGtRgl69IV-31" value="账号" style="ellipse;whiteSpace=wrap;html=1;align=center;dashed=1;sketch=1;fillColor=#dae8fc;strokeColor=#6c8ebf;" vertex="1" parent="1">
          <mxGeometry x="706" y="354" width="100" height="40" as="geometry" />
        </mxCell>
        <mxCell id="hC-yQwHcNALGtRgl69IV-32" value="代练" style="ellipse;whiteSpace=wrap;html=1;align=center;dashed=1;sketch=1;fillColor=#dae8fc;strokeColor=#6c8ebf;" vertex="1" parent="1">
          <mxGeometry x="708" y="409" width="100" height="40" as="geometry" />
        </mxCell>
        <mxCell id="hC-yQwHcNALGtRgl69IV-33" value="道具" style="ellipse;whiteSpace=wrap;html=1;align=center;dashed=1;sketch=1;fillColor=#dae8fc;strokeColor=#6c8ebf;" vertex="1" parent="1">
          <mxGeometry x="712" y="464" width="100" height="40" as="geometry" />
        </mxCell>
        <mxCell id="hC-yQwHcNALGtRgl69IV-34" value="金币" style="ellipse;whiteSpace=wrap;html=1;align=center;dashed=1;sketch=1;fillColor=#dae8fc;strokeColor=#6c8ebf;" vertex="1" parent="1">
          <mxGeometry x="714" y="519" width="100" height="40" as="geometry" />
        </mxCell>
        <mxCell id="hC-yQwHcNALGtRgl69IV-42" style="edgeStyle=orthogonalEdgeStyle;curved=1;rounded=0;sketch=1;orthogonalLoop=1;jettySize=auto;html=1;exitX=1;exitY=0.5;exitDx=0;exitDy=0;endArrow=none;endFill=0;" edge="1" parent="1" source="hC-yQwHcNALGtRgl69IV-39" target="hC-yQwHcNALGtRgl69IV-40">
          <mxGeometry relative="1" as="geometry" />
        </mxCell>
        <mxCell id="hC-yQwHcNALGtRgl69IV-43" style="edgeStyle=orthogonalEdgeStyle;curved=1;rounded=0;sketch=1;orthogonalLoop=1;jettySize=auto;html=1;exitX=1;exitY=0.5;exitDx=0;exitDy=0;entryX=0;entryY=0.5;entryDx=0;entryDy=0;endArrow=none;endFill=0;" edge="1" parent="1" source="hC-yQwHcNALGtRgl69IV-39" target="hC-yQwHcNALGtRgl69IV-41">
          <mxGeometry relative="1" as="geometry" />
        </mxCell>
        <mxCell id="hC-yQwHcNALGtRgl69IV-39" value="交易方式" style="ellipse;whiteSpace=wrap;html=1;align=center;sketch=1;fillColor=#dae8fc;strokeColor=#6c8ebf;" vertex="1" parent="1">
          <mxGeometry x="425" y="500" width="100" height="40" as="geometry" />
        </mxCell>
        <mxCell id="hC-yQwHcNALGtRgl69IV-40" value="担保" style="ellipse;whiteSpace=wrap;html=1;align=center;dashed=1;sketch=1;fillColor=#dae8fc;strokeColor=#6c8ebf;" vertex="1" parent="1">
          <mxGeometry x="561" y="509" width="100" height="40" as="geometry" />
        </mxCell>
        <mxCell id="hC-yQwHcNALGtRgl69IV-41" value="寄售" style="ellipse;whiteSpace=wrap;html=1;align=center;dashed=1;sketch=1;fillColor=#dae8fc;strokeColor=#6c8ebf;" vertex="1" parent="1">
          <mxGeometry x="563" y="562" width="100" height="40" as="geometry" />
        </mxCell>
        <mxCell id="hC-yQwHcNALGtRgl69IV-44" value="Entity" style="whiteSpace=wrap;html=1;align=center;sketch=1;" vertex="1" parent="1">
          <mxGeometry x="163" y="592" width="100" height="40" as="geometry" />
        </mxCell>
      </root>
    </mxGraphModel>
  </diagram>
</mxfile>
